# xmcd
#
# Track frame offsets: 
#        150
#        33141
#        64430
#        92749
#        114369
#        152430
#        179720
#        202424
#        236337
#        261895
#        291796
#        326122
#
# Disc length: 4691 seconds
#
# Revision: 1
# Processed by: cddbd v1.5.2PL0 Copyright (c) Steve Scherf et al.
# Submitted via: ExactAudioCopy v1.0b1
#
DISCID=af12510c
DTITLE=Various Artist - Wire 08 Compilation CD1
DYEAR=2008
DGENRE=Techno
TTITLE0=Superpitcher - Disko! (You Don't Care)
TTITLE1=Technasia - Oxide 2 (Renato Cohen Remix)
TTITLE2=Ken Ishii - Foot Choke From Mount (Wire Edit)
TTITLE3=Ellen Allien - Elphine
TTITLE4=Jens Zimmermann - On Drumzzz
TTITLE5=Joris Voorn - Minor (Rejected Bling Bling Mix)
TTITLE6=Toby Izui and Newdeal - Funny Top
TTITLE7=Alter Ego - Jolly Joker (Supermayer Remix)
TTITLE8=Denki Groove - Shounan Acid
TTITLE9=Christian Smith and John Selway - Walk The Walk
TTITLE10=Michel De Hey - Sylvester 3
TTITLE11=Burger and Voigt - Planet
EXTD=
EXTT0=
EXTT1=
EXTT2=
EXTT3=
EXTT4=
EXTT5=
EXTT6=
EXTT7=
EXTT8=
EXTT9=
EXTT10=
EXTT11=
PLAYORDER=
